<mxfile host="app.diagrams.net" modified="2023-02-28T11:13:25.021Z" agent="5.0 (Windows NT 10.0; Win64; x64) AppleWebKit/537.36 (KHTML, like Gecko) Chrome/110.0.0.0 Safari/537.36 Edg/110.0.1587.57" etag="MW4qemujQTJJdPLNDQnM" version="20.8.18" type="github">
  <diagram id="C5RBs43oDa-KdzZeNtuy" name="Page-1">
    <mxGraphModel dx="1056" dy="521" grid="1" gridSize="10" guides="1" tooltips="1" connect="1" arrows="1" fold="1" page="1" pageScale="1" pageWidth="827" pageHeight="1169" math="0" shadow="0">
      <root>
        <mxCell id="WIyWlLk6GJQsqaUBKTNV-0" />
        <mxCell id="WIyWlLk6GJQsqaUBKTNV-1" parent="WIyWlLk6GJQsqaUBKTNV-0" />
        <mxCell id="1uNZZbGPaJn9TZlMmnfM-14" value="" style="edgeStyle=orthogonalEdgeStyle;rounded=0;orthogonalLoop=1;jettySize=auto;html=1;" edge="1" parent="WIyWlLk6GJQsqaUBKTNV-1" source="1uNZZbGPaJn9TZlMmnfM-0" target="1uNZZbGPaJn9TZlMmnfM-4">
          <mxGeometry relative="1" as="geometry" />
        </mxCell>
        <mxCell id="1uNZZbGPaJn9TZlMmnfM-0" value="cmd mode" style="rounded=1;whiteSpace=wrap;html=1;fontSize=12;glass=0;strokeWidth=1;shadow=0;" vertex="1" parent="WIyWlLk6GJQsqaUBKTNV-1">
          <mxGeometry x="400" y="80" width="120" height="40" as="geometry" />
        </mxCell>
        <mxCell id="1uNZZbGPaJn9TZlMmnfM-7" value="" style="edgeStyle=orthogonalEdgeStyle;rounded=0;orthogonalLoop=1;jettySize=auto;html=1;" edge="1" parent="WIyWlLk6GJQsqaUBKTNV-1" target="1uNZZbGPaJn9TZlMmnfM-6">
          <mxGeometry relative="1" as="geometry">
            <mxPoint x="200" y="180" as="sourcePoint" />
          </mxGeometry>
        </mxCell>
        <mxCell id="1uNZZbGPaJn9TZlMmnfM-24" value="Yes" style="edgeStyle=orthogonalEdgeStyle;rounded=0;orthogonalLoop=1;jettySize=auto;html=1;" edge="1" parent="WIyWlLk6GJQsqaUBKTNV-1" source="1uNZZbGPaJn9TZlMmnfM-4" target="1uNZZbGPaJn9TZlMmnfM-17">
          <mxGeometry relative="1" as="geometry" />
        </mxCell>
        <mxCell id="1uNZZbGPaJn9TZlMmnfM-25" value="No" style="edgeStyle=orthogonalEdgeStyle;rounded=0;orthogonalLoop=1;jettySize=auto;html=1;" edge="1" parent="WIyWlLk6GJQsqaUBKTNV-1" source="1uNZZbGPaJn9TZlMmnfM-4" target="1uNZZbGPaJn9TZlMmnfM-20">
          <mxGeometry relative="1" as="geometry" />
        </mxCell>
        <mxCell id="1uNZZbGPaJn9TZlMmnfM-4" value="ATDn/ATO" style="rhombus;whiteSpace=wrap;html=1;" vertex="1" parent="WIyWlLk6GJQsqaUBKTNV-1">
          <mxGeometry x="560" y="80" width="120" height="40" as="geometry" />
        </mxCell>
        <mxCell id="1uNZZbGPaJn9TZlMmnfM-15" value="" style="edgeStyle=orthogonalEdgeStyle;rounded=0;orthogonalLoop=1;jettySize=auto;html=1;" edge="1" parent="WIyWlLk6GJQsqaUBKTNV-1" source="1uNZZbGPaJn9TZlMmnfM-5" target="1uNZZbGPaJn9TZlMmnfM-12">
          <mxGeometry relative="1" as="geometry" />
        </mxCell>
        <mxCell id="1uNZZbGPaJn9TZlMmnfM-5" value="data mode" style="rounded=1;whiteSpace=wrap;html=1;fontSize=12;glass=0;strokeWidth=1;shadow=0;" vertex="1" parent="WIyWlLk6GJQsqaUBKTNV-1">
          <mxGeometry x="400" y="240" width="120" height="40" as="geometry" />
        </mxCell>
        <mxCell id="1uNZZbGPaJn9TZlMmnfM-9" value="Yes(defaultt)" style="edgeStyle=orthogonalEdgeStyle;rounded=0;orthogonalLoop=1;jettySize=auto;html=1;exitX=0.5;exitY=0;exitDx=0;exitDy=0;entryX=0;entryY=0.5;entryDx=0;entryDy=0;" edge="1" parent="WIyWlLk6GJQsqaUBKTNV-1" source="1uNZZbGPaJn9TZlMmnfM-6" target="1uNZZbGPaJn9TZlMmnfM-0">
          <mxGeometry relative="1" as="geometry" />
        </mxCell>
        <mxCell id="1uNZZbGPaJn9TZlMmnfM-10" value="No" style="edgeStyle=orthogonalEdgeStyle;rounded=0;orthogonalLoop=1;jettySize=auto;html=1;exitX=0.5;exitY=1;exitDx=0;exitDy=0;entryX=0;entryY=0.5;entryDx=0;entryDy=0;" edge="1" parent="WIyWlLk6GJQsqaUBKTNV-1" source="1uNZZbGPaJn9TZlMmnfM-6" target="1uNZZbGPaJn9TZlMmnfM-5">
          <mxGeometry relative="1" as="geometry" />
        </mxCell>
        <mxCell id="1uNZZbGPaJn9TZlMmnfM-6" value="mode=cmd?" style="rhombus;whiteSpace=wrap;html=1;" vertex="1" parent="WIyWlLk6GJQsqaUBKTNV-1">
          <mxGeometry x="240" y="160" width="120" height="40" as="geometry" />
        </mxCell>
        <mxCell id="1uNZZbGPaJn9TZlMmnfM-22" value="Yes" style="edgeStyle=orthogonalEdgeStyle;rounded=0;orthogonalLoop=1;jettySize=auto;html=1;" edge="1" parent="WIyWlLk6GJQsqaUBKTNV-1" source="1uNZZbGPaJn9TZlMmnfM-12" target="1uNZZbGPaJn9TZlMmnfM-19">
          <mxGeometry relative="1" as="geometry" />
        </mxCell>
        <mxCell id="1uNZZbGPaJn9TZlMmnfM-23" value="No" style="edgeStyle=orthogonalEdgeStyle;rounded=0;orthogonalLoop=1;jettySize=auto;html=1;" edge="1" parent="WIyWlLk6GJQsqaUBKTNV-1" source="1uNZZbGPaJn9TZlMmnfM-12" target="1uNZZbGPaJn9TZlMmnfM-21">
          <mxGeometry relative="1" as="geometry" />
        </mxCell>
        <mxCell id="1uNZZbGPaJn9TZlMmnfM-12" value="+++" style="rhombus;whiteSpace=wrap;html=1;" vertex="1" parent="WIyWlLk6GJQsqaUBKTNV-1">
          <mxGeometry x="560" y="240" width="120" height="40" as="geometry" />
        </mxCell>
        <mxCell id="1uNZZbGPaJn9TZlMmnfM-16" value="UART DATA" style="ellipse;whiteSpace=wrap;html=1;" vertex="1" parent="WIyWlLk6GJQsqaUBKTNV-1">
          <mxGeometry x="80" y="160" width="120" height="40" as="geometry" />
        </mxCell>
        <mxCell id="1uNZZbGPaJn9TZlMmnfM-17" value="switch to data mode" style="rounded=1;whiteSpace=wrap;html=1;fontSize=12;glass=0;strokeWidth=1;shadow=0;" vertex="1" parent="WIyWlLk6GJQsqaUBKTNV-1">
          <mxGeometry x="560" y="160" width="120" height="40" as="geometry" />
        </mxCell>
        <mxCell id="1uNZZbGPaJn9TZlMmnfM-19" value="switch to cmd mode" style="rounded=1;whiteSpace=wrap;html=1;fontSize=12;glass=0;strokeWidth=1;shadow=0;" vertex="1" parent="WIyWlLk6GJQsqaUBKTNV-1">
          <mxGeometry x="560" y="320" width="120" height="40" as="geometry" />
        </mxCell>
        <mxCell id="1uNZZbGPaJn9TZlMmnfM-20" value="EXE" style="ellipse;whiteSpace=wrap;html=1;" vertex="1" parent="WIyWlLk6GJQsqaUBKTNV-1">
          <mxGeometry x="720" y="80" width="120" height="40" as="geometry" />
        </mxCell>
        <mxCell id="1uNZZbGPaJn9TZlMmnfM-21" value="Forwarding" style="ellipse;whiteSpace=wrap;html=1;" vertex="1" parent="WIyWlLk6GJQsqaUBKTNV-1">
          <mxGeometry x="720" y="240" width="120" height="40" as="geometry" />
        </mxCell>
      </root>
    </mxGraphModel>
  </diagram>
</mxfile>
